<svg width="20" height="21" viewBox="0 0 20 21" fill="none" xmlns="http://www.w3.org/2000/svg">
<path d="M8.75 1.45312L20 1.45312L20 12.7031H17.7148L12.666 3.95312L11.6602 5.68164C11.3021 5.12826 10.8757 4.63346 10.3809 4.19727C9.88607 3.76107 9.34245 3.39648 8.75 3.10352V1.45312ZM10.752 7.26367L6.18164 15.1738C5.99284 15.1934 5.80729 15.2031 5.625 15.2031C4.85026 15.2031 4.12109 15.0566 3.4375 14.7637C2.75391 14.4707 2.1582 14.0671 1.65039 13.5527C1.14258 13.0384 0.742188 12.4427 0.449219 11.7656C0.15625 11.0885 0.00651042 10.3594 0 9.57812C0 8.80339 0.146484 8.07422 0.439453 7.39062C0.732422 6.70703 1.13607 6.11133 1.65039 5.60352C2.16471 5.0957 2.76042 4.69531 3.4375 4.40234C4.11458 4.10938 4.84375 3.95964 5.625 3.95312C6.17839 3.95312 6.71224 4.03125 7.22656 4.1875C7.74089 4.34375 8.22266 4.5651 8.67188 4.85156C9.12109 5.13802 9.52148 5.48307 9.87305 5.88672C10.2246 6.29036 10.5176 6.74935 10.752 7.26367ZM5.81055 18.9531L12.666 7.07812L19.5215 18.9531L5.81055 18.9531Z" fill="#B0B0B0"/>
</svg>
