<svg width="16" height="16" viewBox="0 0 16 16" fill="none" xmlns="http://www.w3.org/2000/svg">
<g clip-path="url(#clip0_2365_1992)">
<path d="M11 0.281251L15 0.281251C15.1326 0.281251 15.2598 0.333929 15.3536 0.427697C15.4473 0.521466 15.5 0.648643 15.5 0.781251V4.78125C15.5002 4.88027 15.4709 4.97711 15.416 5.0595C15.3611 5.14189 15.2829 5.20612 15.1915 5.24404C15.1 5.28195 14.9993 5.29186 14.9022 5.27249C14.8051 5.25312 14.7159 5.20536 14.646 5.13525L13 3.48825L1.354 15.1353L0.645999 14.4273L12.293 2.78125L10.646 1.13525C10.5759 1.06532 10.5281 0.97615 10.5088 0.879041C10.4894 0.781933 10.4993 0.681261 10.5372 0.589788C10.5751 0.498314 10.6394 0.420159 10.7217 0.365231C10.8041 0.310302 10.901 0.281074 11 0.281251Z" fill="#B0B0B0"/>
</g>
<defs>
<clipPath id="clip0_2365_1992">
<rect width="15" height="15" fill="white" transform="matrix(-1 0 0 1 15.5 0.28125)"/>
</clipPath>
</defs>
</svg>
